<mxfile host="app.diagrams.net" modified="2022-06-17T09:50:13.126Z" agent="5.0 (Windows NT 10.0; Win64; x64) AppleWebKit/537.36 (KHTML, like Gecko) Chrome/102.0.5005.63 Safari/537.36 Edg/102.0.1245.39" etag="dKfp6e2umjnp2HCwP_AF" version="20.0.1" type="github">
  <diagram id="x_Choa2Ftm9cdcussSz6" name="Page-1">
    <mxGraphModel dx="713" dy="1572" grid="1" gridSize="10" guides="1" tooltips="1" connect="1" arrows="1" fold="1" page="1" pageScale="1" pageWidth="827" pageHeight="1169" math="0" shadow="0">
      <root>
        <mxCell id="0" />
        <mxCell id="1" parent="0" />
        <mxCell id="EGYxSZZa9hH6IiNAbMdY-1" value="Журнал проведенного обслуживания" style="strokeWidth=1;shadow=0;dashed=0;align=center;html=1;shape=mxgraph.mockup.containers.window;align=left;verticalAlign=top;spacingLeft=8;strokeColor2=#008cff;strokeColor3=#c4c4c4;fontColor=#666666;mainText=;fontSize=17;labelBackgroundColor=none;" vertex="1" parent="1">
          <mxGeometry x="139" y="470" width="550" height="380" as="geometry" />
        </mxCell>
        <mxCell id="EGYxSZZa9hH6IiNAbMdY-2" value="&lt;table cellpadding=&quot;4&quot; cellspacing=&quot;0&quot; border=&quot;1&quot; style=&quot;font-size:1em;width:100%;height:100%;&quot;&gt;&lt;tbody&gt;&lt;tr&gt;&lt;th&gt;Единица оборудования&lt;/th&gt;&lt;td&gt;&lt;b&gt;Дата и время &lt;br&gt;запроса на обслуживание&lt;/b&gt;&lt;/td&gt;&lt;td&gt;&lt;b&gt;Дата и время&lt;/b&gt;&lt;br&gt;&lt;b&gt;начала обслуживания&lt;/b&gt;&lt;/td&gt;&lt;th&gt;Дата и время &lt;br&gt;проведения обслуживания&lt;/th&gt;&lt;td&gt;&lt;b&gt;Тип показателя&lt;/b&gt;&lt;/td&gt;&lt;td&gt;&lt;b&gt;Ед.измерения&lt;/b&gt;&lt;/td&gt;&lt;td&gt;&lt;b&gt;Величина показателя&lt;br&gt;на момент запроса&lt;/b&gt;&lt;/td&gt;&lt;td&gt;&lt;b&gt;Величина показателя&lt;br&gt;на момент начала обслуживания&lt;/b&gt;&lt;/td&gt;&lt;td&gt;&lt;b&gt;Запрос на обслуживание&lt;/b&gt;&lt;/td&gt;&lt;td&gt;&lt;b&gt;Рабочее задание&lt;/b&gt;&lt;/td&gt;&lt;td&gt;&lt;b&gt;Статус&lt;/b&gt;&lt;/td&gt;&lt;/tr&gt;&lt;tr&gt;&lt;td&gt;Вагон 1234&lt;/td&gt;&lt;td&gt;17.06.2022 15:39&lt;/td&gt;&lt;td&gt;18.06.2022 16:12&lt;/td&gt;&lt;td&gt;19.06.2022 14:25&amp;nbsp;&lt;/td&gt;&lt;td&gt;Пробег вагонов&lt;/td&gt;&lt;td&gt;км&lt;/td&gt;&lt;td&gt;60050&lt;/td&gt;&lt;td&gt;60237&lt;/td&gt;&lt;td&gt;System&lt;/td&gt;&lt;td&gt;WO-12034&lt;/td&gt;&lt;td&gt;Закрыто&lt;/td&gt;&lt;/tr&gt;&lt;tr&gt;&lt;td&gt;&lt;/td&gt;&lt;td&gt;&lt;br&gt;&lt;/td&gt;&lt;td&gt;&lt;br&gt;&lt;/td&gt;&lt;td&gt;&lt;/td&gt;&lt;td&gt;&lt;br&gt;&lt;/td&gt;&lt;td&gt;&lt;br&gt;&lt;/td&gt;&lt;td&gt;&lt;br&gt;&lt;/td&gt;&lt;td&gt;&lt;br&gt;&lt;/td&gt;&lt;td&gt;&lt;br&gt;&lt;/td&gt;&lt;td&gt;&lt;br&gt;&lt;/td&gt;&lt;td&gt;&lt;br&gt;&lt;/td&gt;&lt;/tr&gt;&lt;/tbody&gt;&lt;/table&gt; " style="verticalAlign=top;align=left;overflow=fill;fontSize=12;fontFamily=Helvetica;html=1" vertex="1" parent="1">
          <mxGeometry x="21" y="-150" width="1504" height="140" as="geometry" />
        </mxCell>
      </root>
    </mxGraphModel>
  </diagram>
</mxfile>
